<?xml version="1.0" encoding="iso-8859-1"?>
<!-- Generator: Adobe Illustrator 19.0.0, SVG Export Plug-In . SVG Version: 6.00 Build 0)  -->
<svg version="1.1" id="Layer_1" xmlns="http://www.w3.org/2000/svg" xmlns:xlink="http://www.w3.org/1999/xlink" x="0px" y="0px"
	 viewBox="0 0 511.999 511.999" style="enable-background:new 0 0 511.999 511.999;" xml:space="preserve">
<path style="fill:#7FA24D;" d="M486.583,335.815V229.959c0-8.729-7.075-15.804-15.804-15.804h-88.008
	c-8.729,0-15.804,7.075-15.804,15.804v99.027l-25.841,164.741c-0.716,4.564,0.603,9.209,3.603,12.721s7.391,5.551,12.01,5.551
	c36.405,0,104.356,0,138.892,0c4.62,0,9.009-2.022,12.013-5.534c3.002-3.512,4.315-8.162,3.601-12.728L486.583,335.815z"/>
<g>
	<path style="fill:#A8DA64;" d="M464.098,336.491V239.1c0-1.694-1.374-3.068-3.068-3.068h-66.039c-1.694,0-3.068,1.374-3.068,3.068
		v97.391c0,2.776,2.25,5.026,5.025,5.026h62.122C461.849,341.517,464.098,339.267,464.098,336.491z"/>
	<path style="fill:#A8DA64;" d="M391.925,433.711v46.309c0,1.694,1.374,3.068,3.068,3.068h66.039c1.694,0,3.068-1.374,3.068-3.068
		v-46.309c0-2.013-1.632-3.644-3.644-3.644h-64.884C393.556,430.067,391.925,431.698,391.925,433.711z"/>
</g>
<rect x="197.765" y="154.418" style="fill:#3E3E42;" width="47.745" height="107.583"/>
<rect x="221.627" y="154.418" style="fill:#2D2E30;" width="23.874" height="107.583"/>
<path style="fill:#3E3E42;" d="M179.484,453.076c-3.273,0-6.581-0.963-9.475-2.969c-7.559-5.242-9.438-15.618-4.197-23.178
	l38.499-55.527v-83.307c0-9.198,7.457-16.655,16.655-16.655c9.198,0,16.655,7.457,16.655,16.655v88.517
	c0,3.392-1.036,6.702-2.968,9.49l-41.467,59.807C189.953,450.574,184.762,453.076,179.484,453.076z"/>
<path style="fill:#313133;" d="M237.622,344.848v-56.753c0-9.198-7.457-16.655-16.655-16.655s-16.655,7.457-16.655,16.655v56.753
	H237.622z"/>
<path style="fill:#E1E1E3;" d="M226.119,254.915H17.22c-9.198,0-16.655,7.457-16.655,16.655s7.457,16.655,16.655,16.655h208.9
	V254.915z"/>
<rect x="97.722" y="254.916" style="fill:#AEACB3;" width="128.402" height="33.311"/>
<g>
	<path style="fill:#8A8A91;" d="M90.828,254.915c-24.752,0.549-49.18,0.549-73.608,0"/>
	<path style="fill:#8A8A91;" d="M226.119,254.915c-43.456,0.549-85.65,0.549-129.281,0"/>
</g>
<path style="fill:#2D2E30;" d="M416.208,299.33H306.654c-15.332,0-27.759-12.427-27.759-27.759
	c0-15.332,12.427-27.759,27.759-27.759h109.555c15.332,0,27.759,12.427,27.759,27.759C443.967,286.903,431.54,299.33,416.208,299.33
	z"/>
<path style="fill:#797882;" d="M338.259,314.316c0,8.102-6.568,14.67-14.67,14.67H132.835c-8.102,0-14.67-6.568-14.67-14.67v-85.491
	c0-8.102,6.568-14.67,14.67-14.67h190.753c8.102,0,14.67,6.568,14.67,14.67v85.491H338.259z"/>
<path style="fill:#CECED1;" d="M221.632,180.709c53.535,0,97.76-67.786,104.625-155.646c0.481-6.148-1.63-12.216-5.815-16.745
	c-4.185-4.529-10.074-7.125-16.242-7.125H139.065c-6.171,0-12.062,2.577-16.25,7.111c-4.188,4.532-6.287,10.608-5.806,16.761
	C123.873,112.923,168.099,180.709,221.632,180.709z"/>
<path style="fill:#57565C;" d="M314.634,86.134c3.749-11.849,6.74-24.495,8.858-37.752H119.774
	c2.119,13.258,5.11,25.904,8.858,37.752H314.634z"/>
<g>
	<path style="fill:#E1E1E3;" d="M320.442,8.317c-4.185-4.53-10.074-7.125-16.241-7.125H139.065c-6.171,0-12.062,2.577-16.25,7.111
		c-4.188,4.532-6.287,10.608-5.806,16.761c0.591,7.564,1.465,14.973,2.592,22.208h204.065c1.127-7.235,2.001-14.645,2.592-22.208
		C326.737,18.914,324.627,12.847,320.442,8.317z"/>
	<path style="fill:#E1E1E3;" d="M320.662,9.745c-4.119-4.59-9.971-7.271-16.137-7.359L139.407,0.002
		c-6.171-0.089-12.098,2.403-16.351,6.875c-4.253,4.471-6.439,10.516-6.048,16.675c0.482,7.57,1.249,14.992,2.271,22.244
		l204.044,2.945c1.231-7.218,2.212-14.615,2.911-22.168C326.803,20.432,324.781,14.334,320.662,9.745z"/>
</g>
<path style="fill:#555558;" d="M323.589,214.155H221.634v114.831h101.955c8.102,0,14.67-6.569,14.67-14.67v-85.491
	C338.259,220.723,331.69,214.155,323.589,214.155z"/>
<path style="fill:#BABABA;" d="M304.201,1.191h-82.567v179.516c53.534,0,97.76-67.786,104.624-155.645
	c0.481-6.149-1.63-12.216-5.815-16.746C316.257,3.788,310.368,1.191,304.201,1.191z"/>
<path style="fill:#3E3E42;" d="M221.634,86.134h93.001c3.749-11.849,6.74-24.495,8.858-37.752h-101.86L221.634,86.134
	L221.634,86.134z"/>
<path style="fill:#BABABA;" d="M304.524,2.385l-82.892-1.196v46.084l101.689,1.468c1.231-7.217,2.212-14.615,2.912-22.168
	c0.569-6.14-1.453-12.238-5.573-16.827C316.543,5.154,310.691,2.474,304.524,2.385z"/>
<g>
</g>
<g>
</g>
<g>
</g>
<g>
</g>
<g>
</g>
<g>
</g>
<g>
</g>
<g>
</g>
<g>
</g>
<g>
</g>
<g>
</g>
<g>
</g>
<g>
</g>
<g>
</g>
<g>
</g>
</svg>
