<?xml version="1.0" encoding="iso-8859-1"?>
<!-- Generator: Adobe Illustrator 19.0.0, SVG Export Plug-In . SVG Version: 6.00 Build 0)  -->
<svg version="1.1" id="Layer_1" xmlns="http://www.w3.org/2000/svg" xmlns:xlink="http://www.w3.org/1999/xlink" x="0px" y="0px"
	 viewBox="0 0 512 512" style="enable-background:new 0 0 512 512;" xml:space="preserve">
<path style="fill:#333333;" d="M368.101,8.44c0-4.662-3.778-8.44-8.44-8.44H152.339c-4.662,0-8.44,3.778-8.44,8.44v52.888h8.44l0,0
	h207.323l0,0h8.44V8.44z"/>
<path style="fill:#1E1E1D;" d="M359.661,0h-34.884v61.327h34.884h8.44V8.44C368.101,3.778,364.323,0,359.661,0z"/>
<path style="fill:#8A8991;" d="M345.956,338.172v-12.696c0-44.994-21.97-84.141-54.113-103.781
	c41.159-11.858,72.409-53.076,76.259-103.3V90.757h-16.473v19.086c-0.856,54.445-38.264,98.422-84.129,98.422
	c-3.815,0-7.579,0.255-11.285,0.735c-3.707-0.48-7.471-0.735-11.285-0.735c-45.865,0-83.273-43.977-84.129-98.422V90.757H143.9
	v15.582v1.596v2.103h0.024c0.824,53.968,33.24,99.148,76.662,111.659c-32.143,19.638-54.113,58.785-54.113,103.781v12.642
	c-30.39,3.943-53.945,29.974-53.945,61.42v50.506c0,34.162,27.793,61.955,61.957,61.955c0.072,0,0.142-0.009,0.213-0.011
	c0.071,0.002,0.142,0.011,0.213,0.011c4.662,0,8.44-3.778,8.44-8.44V325.476c0-50.76,31.781-92.832,72.864-99.427
	c41.083,6.595,72.864,48.667,72.864,99.427v20.546V503.56c0,4.662,3.778,8.44,8.44,8.44c34.163,0,61.957-27.793,61.957-61.956
	v-50.506C399.473,368.239,376.139,342.303,345.956,338.172z M166.044,494.329c-20.836-3.963-36.638-22.313-36.638-44.285v-50.506
	c0-21.971,15.802-40.322,36.638-44.284L166.044,494.329L166.044,494.329z M382.593,450.044c0,21.971-15.802,40.322-36.638,44.284
	V355.254c20.836,3.963,36.638,22.313,36.638,44.285V450.044z"/>
<rect x="143.9" y="52.888" style="fill:#C7C6CC;" width="224.2" height="61.89"/>
<rect x="324.777" y="52.888" style="fill:#ADACB2;" width="43.323" height="61.89"/>
<g>
</g>
<g>
</g>
<g>
</g>
<g>
</g>
<g>
</g>
<g>
</g>
<g>
</g>
<g>
</g>
<g>
</g>
<g>
</g>
<g>
</g>
<g>
</g>
<g>
</g>
<g>
</g>
<g>
</g>
</svg>
