<?xml version="1.0" encoding="iso-8859-1"?>
<!-- Generator: Adobe Illustrator 19.0.0, SVG Export Plug-In . SVG Version: 6.00 Build 0)  -->
<svg version="1.1" id="Capa_1" xmlns="http://www.w3.org/2000/svg" xmlns:xlink="http://www.w3.org/1999/xlink" x="0px" y="0px"
	 viewBox="0 0 464 464" style="enable-background:new 0 0 464 464;" xml:space="preserve">
<polygon style="fill:#DDD8CE;" points="0,376 0,112 384,112 384,432 56,432 "/>
<polygon style="fill:#B53C33;" points="40,72 40,112 384,112 384,392 424,392 424,72 "/>
<polygon style="fill:#512869;" points="80,32 80,72 424,72 424,352 464,352 464,32 "/>
<rect x="32" y="144" style="fill:#DDA137;" width="320" height="200"/>
<polygon style="fill:#201F2D;" points="0,376 56,376 56,432 "/>
<circle style="fill:#B53C33;" cx="96" cy="208" r="32"/>
<polygon style="fill:#512869;" points="32,264 80,312 152,240 192,280 288,184 352,248 352,344 32,344 "/>
<g>
	<rect x="344" y="392" style="fill:#201F2D;" width="16" height="16"/>
	<rect x="312" y="392" style="fill:#201F2D;" width="16" height="16"/>
	<rect x="280" y="392" style="fill:#201F2D;" width="16" height="16"/>
</g>
<g>
</g>
<g>
</g>
<g>
</g>
<g>
</g>
<g>
</g>
<g>
</g>
<g>
</g>
<g>
</g>
<g>
</g>
<g>
</g>
<g>
</g>
<g>
</g>
<g>
</g>
<g>
</g>
<g>
</g>
</svg>
